<svg xmlns="http://www.w3.org/2000/svg" xmlns:xlink="http://www.w3.org/1999/xlink" width="64" zoomAndPan="magnify" viewBox="0 0 48 48" height="64" preserveAspectRatio="xMidYMid meet" version="1.0"><defs><clipPath id="4cf9f2bd34"><path d="M 0.488281 0 L 47.507812 0 L 47.507812 47.019531 L 0.488281 47.019531 Z M 0.488281 0 " clip-rule="nonzero"/></clipPath><clipPath id="8cb00bc4f4"><path d="M 24 0 C 11.015625 0 0.488281 10.527344 0.488281 23.511719 C 0.488281 36.496094 11.015625 47.019531 24 47.019531 C 36.984375 47.019531 47.511719 36.496094 47.511719 23.511719 C 47.511719 10.527344 36.984375 0 24 0 Z M 24 0 " clip-rule="nonzero"/></clipPath><clipPath id="28e7b10d00"><path d="M 12.039062 11.339844 L 39.003906 11.339844 L 39.003906 35.582031 L 12.039062 35.582031 Z M 12.039062 11.339844 " clip-rule="nonzero"/></clipPath><clipPath id="15d76da109"><path d="M 8.996094 17.964844 L 30.199219 17.964844 L 30.199219 35.582031 L 8.996094 35.582031 Z M 8.996094 17.964844 " clip-rule="nonzero"/></clipPath></defs><g clip-path="url(#4cf9f2bd34)"><g clip-path="url(#8cb00bc4f4)"><path fill="#171722" d="M 0.488281 0 L 47.511719 0 L 47.511719 47.019531 L 0.488281 47.019531 Z M 0.488281 0 " fill-opacity="1" fill-rule="nonzero"/></g></g><g clip-path="url(#28e7b10d00)"><path fill="#f2f4f5" d="M 32.285156 27.921875 L 32.28125 27.921875 C 34.996094 26.414062 36.832031 23.515625 36.832031 20.1875 C 36.832031 15.300781 32.871094 11.339844 27.984375 11.339844 L 12.054688 11.339844 L 14.171875 13.785156 C 15.261719 15.042969 16.84375 15.765625 18.507812 15.765625 L 27.984375 15.765625 C 30.425781 15.765625 32.40625 17.746094 32.40625 20.1875 C 32.40625 22.632812 30.425781 24.613281 27.984375 24.613281 L 23.558594 24.613281 L 27.394531 29.035156 L 31.429688 33.691406 C 32.519531 34.949219 34.101562 35.671875 35.769531 35.671875 L 39.003906 35.671875 L 32.285156 27.921875 " fill-opacity="1" fill-rule="nonzero"/></g><g clip-path="url(#15d76da109)"><path fill="#f2f4f5" d="M 27.496094 22.402344 L 25.378906 19.957031 C 24.289062 18.699219 22.703125 17.976562 21.039062 17.976562 L 8.996094 17.976562 L 22.621094 33.691406 C 23.710938 34.949219 25.292969 35.671875 26.957031 35.671875 L 30.191406 35.671875 L 18.6875 22.402344 L 27.496094 22.402344 " fill-opacity="1" fill-rule="nonzero"/></g></svg>